<svg id="Layer_1" data-name="Layer 1" xmlns="http://www.w3.org/2000/svg" viewBox="0 0 360 360"><defs><style>.cls-1{fill:#8c150a;}</style></defs><title>DataDE_red</title><path class="cls-1" d="M242.61,271.18h.12a6.91,6.91,0,0,0-.12-13.81h-.11a6.88,6.88,0,0,0-4.85,2.11c-.1.1-.18.23-.27.34l-25.27-20.88a6.9,6.9,0,0,0-5.86-10.53h-.12a6.92,6.92,0,0,0-1,.11l-8.38-19.85a6.89,6.89,0,0,0-5-11.61h-.13a6.82,6.82,0,0,0-4,1.36l-9.81-13.86A6.84,6.84,0,0,0,176.1,174l3.09-13.34c.21,0,.4.06.61.06h.12a6.9,6.9,0,0,0-.11-13.8h-.12a6.85,6.85,0,0,0-3,.78l-7.87-11.16a6.88,6.88,0,0,0-4.47-12.11h-.13a6.91,6.91,0,0,0-6.78,7,7.48,7.48,0,0,0,.12,1.06L127.81,142a6.65,6.65,0,0,0-1.52-2.07l9.48-13.54,17.16-5.55a6.82,6.82,0,0,0,5.07,2.27h.12a6.91,6.91,0,0,0-.11-13.81h-.13a6.82,6.82,0,0,0-4.84,2.1c-.08.08-.13.17-.2.25l-4.4-3.39L152.1,103a6.85,6.85,0,0,0,3.18.81h.12a6.9,6.9,0,0,0,4.68-11.86A7,7,0,0,0,155.16,90a6.86,6.86,0,0,0-4,1.4l-.48-.54a6.84,6.84,0,0,0-3.36-11.22l.93-14.88a6.86,6.86,0,0,0,3-12.76l.8-3.47a6,6,0,0,0,.61.06h.12a6.9,6.9,0,0,0,4.59-11.94l3.75-6.36a6.89,6.89,0,0,0,3,.69h.12a6.9,6.9,0,0,0-.12-13.8h-.12a6.91,6.91,0,0,0-2.81.67l-1-1.33a6.87,6.87,0,0,0-5.21-11.4h-.11a6.9,6.9,0,0,0-6.74,6.5l-13.7,1.09a6.82,6.82,0,0,0-6.8-5.88h-.12a6.88,6.88,0,0,0-4,12.43L114.83,35.2a6.86,6.86,0,0,0-3-.71h-.12A6.91,6.91,0,0,0,107,46.36l.25.19L109,50.6a6.65,6.65,0,0,0-1.47,1.12,6.87,6.87,0,0,0,4.28,11.63l2.3,59.67a6.88,6.88,0,0,0-3.59,11.74,6.84,6.84,0,0,0,4.79,1.93h.12a6.79,6.79,0,0,0,1.81-.3l1.11,2.49a7,7,0,0,0-1.69,1.24,6.88,6.88,0,0,0,3,11.37L115.9,175h-.25a6.9,6.9,0,0,0,.12,13.8h.12a6.86,6.86,0,0,0,6-10.11l6.61-5.79,1.8,7.44-5.4,10.38a7,7,0,0,0-2.9-.59,6.89,6.89,0,0,0-2.8,13.13l-2.3,6a5.83,5.83,0,0,0-.84-.09h-.11A6.91,6.91,0,0,0,116,222.9h.12a6.9,6.9,0,0,0,6.78-7c0-.05,0-.1,0-.16l8.83-1a6.85,6.85,0,0,0,6.68,5.23h.12a6.9,6.9,0,0,0,6.78-7,2.3,2.3,0,0,0,0-.26l39.94-6.42a6.46,6.46,0,0,0,.82,1.64l-10.79,6-.09-.11a7,7,0,0,0-4.92-1.94,6.9,6.9,0,0,0-4.85,2.1,6.83,6.83,0,0,0-1.93,4.92c0,.21.05.42.07.63l-29.61,6a6.84,6.84,0,0,0-6.84-5.37,6.89,6.89,0,0,0-2.89,13.09l-.11.09a6.9,6.9,0,0,0,5,11.7h.12c.12,0,.24,0,.35,0l3.2,36.72a6.75,6.75,0,0,0-3.71,2,6.91,6.91,0,0,0,.16,9.76,6.77,6.77,0,0,0,3.06,1.69L130,309.69a1.34,1.34,0,0,0-.2,0,6.88,6.88,0,0,0-3.41,12.8l-4.11,9.81a6.94,6.94,0,0,0-2.66-.53h-.12a6.9,6.9,0,0,0,.12,13.8h.12a6.91,6.91,0,0,0,6.78-7l19.63-3a6.9,6.9,0,0,0,6.59,4.93h.12a6.91,6.91,0,0,0,6.28-4.32l46.9,8.4a2.56,2.56,0,0,0,0,.39,6.9,6.9,0,0,0,6.9,6.78H213a6.9,6.9,0,0,0,6.78-7,6.78,6.78,0,0,0-.35-2l11.33-5.06a6.31,6.31,0,0,0,1,1.32,6.82,6.82,0,0,0,4.79,1.94h.12a6.9,6.9,0,0,0,4.69-11.86,7,7,0,0,0-4.92-1.94,6.92,6.92,0,0,0-6.79,7,7.29,7.29,0,0,0,.3,1.8L218.67,341a6.24,6.24,0,0,0-.95-1.17c-.14-.13-.29-.23-.44-.35l6.35-10a6.83,6.83,0,0,0,3.26.85H227a6.89,6.89,0,0,0,4.72-11.81l1.2-1.9a6.93,6.93,0,0,0,2.45.47h.12a6.88,6.88,0,0,0,.5-13.74l-.77-17.74a6.81,6.81,0,0,0,3.72-2,6.89,6.89,0,0,0-.12-9.71l1.68-3.08A6.71,6.71,0,0,0,242.61,271.18Zm-12.19,34.18a6.86,6.86,0,0,0,.86,10.31l-1.09,1.71a6.82,6.82,0,0,0-3.29-.88h-.12a6.89,6.89,0,0,0-4.69,11.85l-6.41,10.14a6.79,6.79,0,0,0-2.75-.59h-.13a6.77,6.77,0,0,0-3.49,1.05l-11.38-11.28a6.75,6.75,0,0,0,.26-7.9l15-20.18a6.79,6.79,0,0,0,3.31.88h.12a6.9,6.9,0,1,0-5-11.73l-11.87-8.84a6.8,6.8,0,0,0-2-8.91l1.4-2.28,28.1,8.84a7.9,7.9,0,0,0-.12,1.39,6.91,6.91,0,0,0,6.26,6.72l.77,17.74A6.85,6.85,0,0,0,230.42,305.36ZM129.93,323.48H130A6.88,6.88,0,0,0,131.88,310l2.23-14.54a6.9,6.9,0,0,0,4.83-2.1,6.79,6.79,0,0,0-1.71-10.85L159.5,246a6.78,6.78,0,0,0,2.53.49h.12a6.91,6.91,0,0,0,6.78-7,6.75,6.75,0,0,0-1.56-4.2l5.88-6.68,4.69,27.75a6.87,6.87,0,0,0,0,13.26l-1.11,8.54-20.61.38a6.9,6.9,0,0,0-6.72-5.35h-.12a6.91,6.91,0,0,0,.12,13.81h.12a6.85,6.85,0,0,0,3.37-1l15.79,16.44a6.86,6.86,0,0,0-1.88,4.85,6.75,6.75,0,0,0,.51,2.45l-19,10.84-.57-1.45a7,7,0,0,0,1.59-1.18,6.9,6.9,0,0,0-5-11.7h-.11a6.9,6.9,0,0,0-6.79,7,6.92,6.92,0,0,0,6.9,6.79h.12a6.87,6.87,0,0,0,1.51-.21l.66,1.69-22,12.58a7.07,7.07,0,0,0-.88-.85l4.22-10.08A6.56,6.56,0,0,0,129.93,323.48ZM164,221.4a6.93,6.93,0,0,0,1.59,2.36,6.85,6.85,0,0,0,4.8,1.94h.12a6.83,6.83,0,0,0,2.2-.43l.16.95L166,234a6.81,6.81,0,0,0-4-1.28h-.12a6.92,6.92,0,0,0-6.66,5.62l-19.38-1a6.86,6.86,0,0,0-3.82-5.35,6.89,6.89,0,0,0,2-4.52Zm-41.43-7.55a7,7,0,0,0-.57-1.28l13-12.93,1.66,6.82a6.78,6.78,0,0,0-5.06,6.42Zm-2-36.94a6.89,6.89,0,0,0-2.8-1.62l3.71-23.48h.25a7.43,7.43,0,0,0,1.57-.22L128,170.79l-7.2,6.33C120.68,177.05,120.64,177,120.57,176.91Zm31.24-57.74-14.25,4.6,9.8-14,4.44,3.42a6.82,6.82,0,0,0-.7,3.08A6.89,6.89,0,0,0,151.81,119.17Zm-29.72,9.59a7,7,0,0,0-.44-1.65,6.91,6.91,0,0,0,1.44.16h.12a6.86,6.86,0,0,0,5.8-10.41l14.33-10.19,2.52,1.94-11.28,16.12Zm-3.35-87.49a7,7,0,0,0-.36-2l16.19-7.13,4.83,10.29-.64,1.33-17.22,7.5-4.05-6A6.77,6.77,0,0,0,118.74,41.27Zm28.93-4.38a6.82,6.82,0,0,0-1.85,3.8l-4.27,1.86-.05-.1,4.38-9c.15,0,.29,0,.44,0h.12a7.37,7.37,0,0,0,1.63-.24l1.06,2.55A6.84,6.84,0,0,0,147.67,36.89Zm-7.48-7.22A6.88,6.88,0,0,0,144,33l-3.51,7.23-4.16-8.86Zm-2.7,16.71-8,16.55-6.84-10.07Zm2.67-1.16.45-.2L144,52.13a7.52,7.52,0,0,0-1.21,1,6.87,6.87,0,0,0-.63,8.82L134,69.64l-3.34-4.9ZM132.64,71l-5.25,5a7.49,7.49,0,0,0-.51-.61,7.13,7.13,0,0,0-1-.77l3.83-7.89Zm6,15.43a6.82,6.82,0,0,0,1.62,4.26L138.12,93a6.88,6.88,0,0,0-7.74,11.15,6.84,6.84,0,0,0,4.79,1.94h.13a6.83,6.83,0,0,0,4.7-2l1.78,1.36-13.94,9.91a6.93,6.93,0,0,0-4-1.83l-.64-26.43a6.88,6.88,0,0,0,5.23-9.51l5.3-5L140.15,82A6.88,6.88,0,0,0,138.63,86.4Zm-16.69,27.18a6.79,6.79,0,0,0-3.63,1.84l3.11-23.13ZM150.15,17a6.27,6.27,0,0,0,1.16.89l-1.37,2.83a6.81,6.81,0,0,0-3.62-1.05h-.12a6.9,6.9,0,0,0-4.85,2.1,6.83,6.83,0,0,0-1.93,4.92,6,6,0,0,0,.14,1.2l-4.07,1.79-4.64-9.89a6.62,6.62,0,0,0,3.56-5.18l13.79-1.09A6.89,6.89,0,0,0,150.15,17ZM145,105.53l5.39-3.83.21.21-3.61,5.15ZM148.38,97a6.81,6.81,0,0,0,.85,3.14l-5.84,4.16-2.24-1.73a6.74,6.74,0,0,0-1.43-8.54L141.63,92a6.84,6.84,0,0,0,3.91,1.22h.12a6.74,6.74,0,0,0,3.57-1.1l.58.66A6.8,6.8,0,0,0,148.38,97Zm-2.95-17.64h0a6.85,6.85,0,0,0-3.9,1.3l-6.42-9.45,8.34-7.94a6.94,6.94,0,0,0,2.91,1.38ZM147.72,51h-.12a6.51,6.51,0,0,0-1.92.34l-3.33-7.09,3.49-1.51a6.8,6.8,0,0,0,2,3.9,6.88,6.88,0,0,0,2.34,1.48l-.72,3.13A6.63,6.63,0,0,0,147.72,51Zm4.79-16.22a6.83,6.83,0,0,0-1.63.24l-1.07-2.55a6.7,6.7,0,0,0,3.41-6l4.21-.57a6.88,6.88,0,0,0,2.08,3.32l-3.74,6.33A6.83,6.83,0,0,0,152.51,34.79Zm6.59-15.51a6.85,6.85,0,0,0-1.93,4.77l-4.26.57A6.73,6.73,0,0,0,151.43,22l1.62-3.34a6.67,6.67,0,0,0,1.89.3h.12a6.94,6.94,0,0,0,3.67-1.14l.82,1.11C159.4,19,159.24,19.14,159.1,19.28Zm-31.51,1.35h.11a7,7,0,0,0,1.38-.16l4.68,10-16.19,7.13a6.57,6.57,0,0,0-1.16-1.31l8.75-16.09A6.77,6.77,0,0,0,127.59,20.63ZM111.83,48.29H112a6.8,6.8,0,0,0,4.21-1.56l3.6,5.3-1.56.68a6.9,6.9,0,0,0-5.74-3.09h-.12a7.37,7.37,0,0,0-1.63.24L109.94,48A6.66,6.66,0,0,0,111.83,48.29Zm7.54,8.11a6.42,6.42,0,0,0-.36-2l1.84-.8,7.66,11.27-4.31,8.88a7.13,7.13,0,0,0-2.11-.36H122a6.9,6.9,0,0,0-6.78,7A6.89,6.89,0,0,0,120.24,87l-4.39,32.58-2.17-56.24A6.89,6.89,0,0,0,119.37,56.4Zm2.74,74.35,10.67-3.45-8,11.5a6.83,6.83,0,0,0-3.12-.78h-.12a7.14,7.14,0,0,0-1.39.17L119,135.62A6.88,6.88,0,0,0,122.11,130.75ZM173.83,300.3h-.12a6.78,6.78,0,0,0-3.41,1l-15.78-16.43a6.82,6.82,0,0,0,1.88-4.43l20.22-.37L174,300.32Zm19.88-30.61h-.12a6.9,6.9,0,0,0-6.78,7A6.78,6.78,0,0,0,187,278l-8.18.15,1.06-8.24h.06a6.89,6.89,0,0,0,6.54-5.19l10.8,3.4-1.23,2A6.75,6.75,0,0,0,193.71,269.69ZM190,210.63l-8.82,45.61a6.82,6.82,0,0,0-1.36-.14l-4.95-29.31,14.43-16.37A5.17,5.17,0,0,0,190,210.63Zm-3.31,52.17a6.91,6.91,0,0,0-1-3.33l7.34-5.89a6.88,6.88,0,0,0,4.73,1.88h.12a6.83,6.83,0,0,0,4.7-2,6.78,6.78,0,0,0,1.58,2.33,4.58,4.58,0,0,0,.43.34l-6.32,10.3Zm-12.22-38.41v0a1.54,1.54,0,0,0,.19-.17Zm26.82,6.13a6.89,6.89,0,0,0,.17,9.76c.08.08.18.14.27.22l-1.1,1.79a6.67,6.67,0,0,0-3-.63,6.9,6.9,0,0,0-6.79,7,7,7,0,0,0,1,3.41l-7.34,5.9a7,7,0,0,0-1.55-1.08l8.91-46.05a6.86,6.86,0,0,0,3.32-1l8.1,19.21A6.81,6.81,0,0,0,201.28,230.52Zm-61.07-62.34h.12a6.91,6.91,0,0,0,6.79-7,1.46,1.46,0,0,0,0-.22l26.2-5a7,7,0,0,0,.92,1.83l-31.42,31.34L135,191.72l-2.7-11.17L138.79,168A6.72,6.72,0,0,0,140.21,168.18Zm-.41,23.93-3.81,3.8-.57-2.35ZM172.59,173a6.91,6.91,0,0,0-6.78,7,7.67,7.67,0,0,0,.18,1.45l-19.19,6.33,28.73-28.66a7,7,0,0,0,1.81,1.06l-3,13A6.56,6.56,0,0,0,172.59,173ZM174.84,149a6.88,6.88,0,0,0-1.94,4.92,1.46,1.46,0,0,1,0,.22l-26.2,5a7,7,0,0,0-1.41-2.41L161,137.32a6.85,6.85,0,0,0,3.29.87h.12a6.8,6.8,0,0,0,2.78-.66l7.9,11.21Zm-15.36-12.76-15.61,19.23a6.82,6.82,0,0,0-3.65-1.07h-.12a6.88,6.88,0,0,0-5.63,10.7l-4.91,4.31-4.49-18.53a6.89,6.89,0,0,0,3.44-6,7.34,7.34,0,0,0-.12-1.05l29.71-9.49A7,7,0,0,0,159.48,136.21Zm-23.75,30.27a6.56,6.56,0,0,0,1.28.87l-5.42,10.41-1.53-6.31Zm-2.56,25.83-4.93,1.63a6.69,6.69,0,0,0-1.36-1.9c-.13-.13-.28-.22-.42-.34l4.48-8.6ZM122.08,203.9h.12a6.88,6.88,0,0,0,6.78-7,6.33,6.33,0,0,0-.13-1.15l4.77-1.57.8,3.32L120.82,211a6.82,6.82,0,0,0-2.11-1.4l2.26-5.85A6.84,6.84,0,0,0,122.08,203.9Zm16.4,2.3-2-8.13,7.3-7.28,22.89-7.55a6.87,6.87,0,0,0,6,3.58h.12a6.84,6.84,0,0,0,3.49-1l9.92,14a6.84,6.84,0,0,0-1.44,4.3c0,.11,0,.23,0,.35l-39.92,6.41A6.87,6.87,0,0,0,138.48,206.2Zm48.93,3.14.18.14-11.3,12.83a6.73,6.73,0,0,0,.1-6.83ZM134,243a6.9,6.9,0,0,0,1.84-3.74l19.33,1a6.83,6.83,0,0,0,2,4.36,7.26,7.26,0,0,0,.63.5l-22.43,36.73a5.41,5.41,0,0,0-.82-.1l-3.22-37A6.86,6.86,0,0,0,134,243Zm-7.81,93.68a6.52,6.52,0,0,0-.36-1l21.66-12.38,1.7,4.31a7.17,7.17,0,0,0-1.43,1.1,6.91,6.91,0,0,0-1.93,4.91Zm26.54-10h-.12a6.77,6.77,0,0,0-1.68.26l-1.78-4.52,19.22-11a6.84,6.84,0,0,0,5.44,2.7H174a6.88,6.88,0,0,0,1.92-13.46l2.66-20.6,9.14-.17a6.89,6.89,0,0,0,6,3.62h.12a6.89,6.89,0,0,0,4.8-2.06l11.87,8.83a6.82,6.82,0,0,0,1.19,8.22L196.9,318.33a6.84,6.84,0,0,0-1.25-.84l3.43-17c.15,0,.28,0,.42,0h.12a6.9,6.9,0,0,0-.11-13.8h-.12a6.9,6.9,0,0,0-4.68,11.86,6.71,6.71,0,0,0,2.52,1.53l-3.38,16.69a7.79,7.79,0,0,0-1.53-.17,6.92,6.92,0,0,0-6.79,7,6.91,6.91,0,0,0,6.9,6.79h.12a6.86,6.86,0,0,0,4.06-1.44l11.23,11.13a6.75,6.75,0,0,0-1.46,2.52l-46.8-8.39a7.9,7.9,0,0,0,.07-.85A6.92,6.92,0,0,0,152.75,326.65ZM234,271.91h-.12A6.9,6.9,0,0,0,229,274a7,7,0,0,0-1.19,1.74L200.12,267l6.06-9.87a6.8,6.8,0,0,0,2.76.59h.12a6.92,6.92,0,0,0,6.79-7,6.85,6.85,0,0,0-2.11-4.85,7,7,0,0,0-4.91-1.94,6.92,6.92,0,0,0-4.7,2,6.9,6.9,0,0,0-1.57-2.33c-.11-.11-.24-.18-.35-.28l1.09-1.79a6.76,6.76,0,0,0,2.94.69h.12a6.83,6.83,0,0,0,4.53-1.83l25.46,21a6.8,6.8,0,0,0-.64,3,6.87,6.87,0,0,0,2.1,4.85,8,8,0,0,0,1,.78l-1.51,2.76A6.81,6.81,0,0,0,234,271.91Z"/></svg>