<svg id="Layer_1" data-name="Layer 1" xmlns="http://www.w3.org/2000/svg" xmlns:xlink="http://www.w3.org/1999/xlink" viewBox="0 0 360 360"><defs><style>.cls-1{fill:none;}.cls-2{clip-path:url(#clip-path);}.cls-3{fill:#ce685d;}.cls-4{fill:#8c150a;}</style><clipPath id="clip-path"><rect class="cls-1" x="93.41" y="62.97" width="173.18" height="234.69"/></clipPath></defs><title>Lightbulb_reds</title><g class="cls-2"><path class="cls-3" d="M252.18,142.36A79.39,79.39,0,1,1,172.79,63a79.38,79.38,0,0,1,79.39,79.39"/><path class="cls-4" d="M245,191.09c-1.69,2.77-3.44,5.59-5.13,8.32-4.66,7.54-9.49,15.33-13.92,23.22-1.37,2.44-2.63,4.58-3.86,6.65-5,8.4-8.67,14.65-10,26h-7.4l15.24-74.76a14.47,14.47,0,0,0,3.66-28.4L223,152l.19-4.93a6.25,6.25,0,0,0,1-.72,6.78,6.78,0,0,0-8.67-10.41l-7.27-3.4a13.66,13.66,0,1,0-25.74,2l-5.51,3.73A9.66,9.66,0,1,0,168,154.91a4.21,4.21,0,0,0,.48.12l.24,5.95a13.66,13.66,0,0,0-1.8,26.69,13.5,13.5,0,0,0,4.25.49l13.68,67.16h-7.1c-1.91-18-7.82-27.58-17.24-42.81l-1-1.57c-1.32-2.13-2.67-4.28-4-6.36-5.85-9.29-11.89-18.89-16.08-28.89-10.85-25.87-8.44-48.85,7.18-68.3C163.25,86.76,185.38,79,210.67,85c12.44,2.94,22.72,8.56,30.56,16.7s13.1,18.54,16,31.23c4.26,18.76.27,37.79-12.2,58.18m-26.23,83.76H173V272.8h45.83ZM195.36,290a10.25,10.25,0,0,1-9.52-7.38h19.91A11.62,11.62,0,0,1,195.36,290m23.42-24.87H173V263h45.83ZM179,163.75l3.34-6.16,1.23.73A6.86,6.86,0,0,0,187.3,164l1.57,17.86a8.71,8.71,0,1,0,10.81,4l10.28-9a14.47,14.47,0,0,0,5,3l-15.4,75.55H190L176.09,187A13.66,13.66,0,0,0,179,163.75m-4.74-2.39-.51-.13-.27-6.41a9.43,9.43,0,0,0,2.38-1.12l2.18,1.3-3.5,6.45-.28-.09m12.06-21.63-5.89,10.86-1.18-.71a10.12,10.12,0,0,0,.64-1.67,9.61,9.61,0,0,0-.18-5.75l5.51-3.73c.35.35.72.68,1.1,1m26.7,3L195,152.84a6.81,6.81,0,0,0-9.72.62l-.48-.29,6-11.06a5,5,0,0,0,.51.16,13.67,13.67,0,0,0,14.78-5.18l6.89,3.23a6.74,6.74,0,0,0,.1,2.41m-16.94,39.55a8.42,8.42,0,0,0-1.75-.7,4.54,4.54,0,0,0-.5-.12l-1.49-17a6.89,6.89,0,0,0,3-1.84l9.91,2a14.4,14.4,0,0,0,1.59,8.23Zm19.8-35.4a6.56,6.56,0,0,0,2.17,1l-.16,3.9a14.49,14.49,0,0,0-11.27,8l-9.41-1.89v-.3l0-.25Zm48.82-15.68c-6.49-28.61-24.58-47.19-52.29-53.73-14.16-3.34-27.54-2.85-39.76,1.48s-22.87,12.21-32,23.61c-9,11.2-14.14,23.67-15.28,37-1,12.35,1.31,25.5,7,39.08,4.44,10.58,10.65,20.46,16.66,30,1.3,2.07,2.65,4.21,3.95,6.31l1,1.58c9,14.55,14.26,23,16.05,38.93a6.37,6.37,0,0,0-4.8,6.15v4.8a6.21,6.21,0,0,0,.51,2.48,6.3,6.3,0,0,0-.51,2.49v4.8a6.36,6.36,0,0,0,6.35,6.34h6.3c1.65,8.6,8.86,15.09,17.48,15.09a18.92,18.92,0,0,0,13.22-5.61,19.26,19.26,0,0,0,5.21-9.48h6.36a6.36,6.36,0,0,0,6.35-6.34v-4.8a6.3,6.3,0,0,0-.51-2.49,6.21,6.21,0,0,0,.51-2.48v-4.8a6.35,6.35,0,0,0-6.35-6.34h-.3c1.24-9.18,4.24-14.25,8.89-22.11,1.19-2,2.54-4.29,3.95-6.8,4.35-7.75,9.13-15.47,13.76-22.94,1.69-2.73,3.44-5.56,5.15-8.35,13.57-22.2,17.87-43.1,13.14-63.92"/></g></svg>