<svg id="Layer_1" data-name="Layer 1" xmlns="http://www.w3.org/2000/svg" viewBox="0 0 360 360"><defs><style>.cls-1{fill:#3e8eaf;}.cls-2{fill:none;stroke:#fff;stroke-miterlimit:10;stroke-width:7px;}.cls-3{fill:#fff;}</style></defs><title>ODD_icon_advocate</title><path class="cls-1" d="M180,328.12A148.12,148.12,0,1,0,31.88,180,148.11,148.11,0,0,0,180,328.12"/><circle class="cls-2" cx="180" cy="180" r="148.12"/><path class="cls-3" d="M282.37,243.36c-9.25-.18-13.52-5.69-16.35-14.34-14.07-43-28.58-85.77-42.89-128.65-3.29-9.86,2.33-18.55,11.9-18.63A12.74,12.74,0,0,1,247,90.37q22.77,68,45.49,136c2.35,7-1.41,11.62-6.14,15.69l-3.95,1.32"/><path class="cls-3" d="M69.85,201.52c1.54-5.34,3.31-10.38,9.3-12.25a13,13,0,0,1,16.59,8.33c2.9,8.27,5.63,16.6,8.36,24.93,2.21,6.72.16,12.82-5.37,16.3-5.11,3.23-11.58,2.16-16.38-2.68a13.91,13.91,0,0,0-1.26-1q-5.61-16.8-11.24-33.59"/><path class="cls-3" d="M179.9,233l-29.22-.71c-.05,2.39-.18,4.41-.12,6.42.17,5.27,3.23,8.47,8.37,8.64,4.39.15,8.79.22,13.18.14,4.8-.09,7.6-3.05,7.8-8.07.07-2,0-4,0-6.42M219.79,99.72c15,44.93,30,89.74,45.27,135.28L193,233.23c0,2.75-.12,5.43-.14,8.12-.06,12-7.83,20.11-19.48,20.2-6.22.06-12.44.07-18.65-.19-11.14-.48-19.21-9.32-19.21-20.8,0-2.82,0-5.65.06-8.77-7.49-.19-14.69-.48-21.87-.49-2.72,0-4.19-.67-5.14-3.64-3.77-11.94-7.82-23.79-11.86-35.64-.74-2.14-.83-3.64,1.21-5.11q60.29-43.31,120.5-86.71a5.74,5.74,0,0,1,1.36-.48"/></svg>