<svg id="Layer_1" data-name="Layer 1" xmlns="http://www.w3.org/2000/svg" viewBox="0 0 360 360"><defs><style>.cls-1{fill:#3e8eaf;}.cls-2{fill:none;stroke:#fff;stroke-miterlimit:10;stroke-width:7px;}.cls-3{fill:#fff;}</style></defs><title>ODD_icon_educate</title><path class="cls-1" d="M180,328.12A148.12,148.12,0,1,0,31.88,180,148.11,148.11,0,0,0,180,328.12"/><circle class="cls-2" cx="180" cy="180" r="148.12"/><path class="cls-3" d="M184.86,123.44a3.2,3.2,0,0,1,2.94-3.18c-.17,0-.07,0,.1,0l.2,0c.8,0,.15,0-.2,0h.19a3.2,3.2,0,0,1,3.19,3.21c0,10.77,0,100.88,0,111.72a3.22,3.22,0,0,1-3.26,3.22c-1.34,0,1.34,0,0-.06a3.22,3.22,0,0,1-3.17-3.21c0-10.69,0-100.82,0-111.7m13.76,123.42c0-45.79-.09-91.66-.13-137.1l-36.8-.29c0,45.9.06,91.87.09,136.88l36.84.51"/><path class="cls-3" d="M161.75,104.48c5.05-8.82,10.42-18.28,15.9-27.67,1.16-2,2.91-3.14,4.51-.4,5.57,9.49,11,19,16.56,28.61l-37-.54"/><path class="cls-3" d="M199.18,255.76c0,2.64.06,21.43-.18,24.5-.23,2.9-2,4.82-4.95,4.85-9.35.13-18.72.12-28.08,0-3.2,0-4.92-2-5.07-5.14-.15-3,0-21.63,0-24.49l38.32.25"/></svg>