<svg id="Layer_1" data-name="Layer 1" xmlns="http://www.w3.org/2000/svg" viewBox="0 0 360 360"><defs><style>.cls-1{fill:#3e8eaf;}.cls-2{fill:none;stroke:#fff;stroke-miterlimit:10;stroke-width:7px;}.cls-3{fill:#fff;}</style></defs><title>ODD_icon_build</title><path class="cls-1" d="M180,328.12A148.12,148.12,0,1,0,31.88,180,148.11,148.11,0,0,0,180,328.12"/><circle class="cls-2" cx="180" cy="180" r="148.12" transform="translate(-74.56 180) rotate(-45)"/><path class="cls-3" d="M194.46,76.6c28.09,10.51,37.91,43.84,19.92,67.12-3.66,4.74-8.89,8.39-13.83,11.94-2.13,1.53-3,2.7-3,5.29q.14,52.4.06,104.81c0,11.4-7.41,19.12-17.92,18.9-9.77-.21-17.09-7.56-17.16-17.64-.12-18.14,0-36.29,0-54.43,0-17.2,0-34.4.06-51.6,0-2.6-.67-4-3.08-5.25C133.7,142,128.6,107.06,149.55,86.67c4.38-4.26,10.06-7.17,16-11.33,0,13.9.07,26.25-.06,38.6,0,2.72.86,12.81,3.29,14.28,7.63,4.63,14.76,4.64,22.4,0,2.4-1.45,3.36-11.52,3.32-14.27-.15-12.35-.08-24.7-.08-37.39"/></svg>