<?xml version="1.0" encoding="utf-8"?>
<!-- Generator: Adobe Illustrator 22.1.0, SVG Export Plug-In . SVG Version: 6.00 Build 0)  -->
<svg version="1.1" id="Layer_1" xmlns="http://www.w3.org/2000/svg" xmlns:xlink="http://www.w3.org/1999/xlink" x="0px" y="0px"
	 viewBox="0 0 360 360" style="enable-background:new 0 0 360 360;" xml:space="preserve">
<style type="text/css">
	.st0{fill:#FFFFFF;}
</style>
<g>
	<path class="st0" d="M224.9,134.4h8.9c3.5,0,6.2,1,8.3,3c0.3,0.3,0.6,0.7,0.9,1.1l1-0.2c-0.1-0.7,0.1-1.4,0.5-2
		c0.1-0.2,0.3-0.4,0.5-0.5l-7-15.3c-2.5-0.3-5.1-0.5-7.9-0.5h-33.7v0.7L224.9,134.4z"/>
	<path class="st0" d="M245.3,199.5l12.7,2.8c0.1-0.4,0.2-0.8,0.5-1.2c0.6-0.9,1.5-1.3,2.5-1.4l0.8-2v-10l-16.5-11.6V199.5z"/>
	<path class="st0" d="M204.4,147.3l-7.9-5.6v8.4l7.9-2C204.3,147.9,204.3,147.6,204.4,147.3z"/>
	<path class="st0" d="M206.1,145c1.5-0.7,3.4,0,4.1,1.5c0,0.1,0,0.1,0.1,0.2l2.7-0.7v-11.6h8l-24.5-11.8v17l8.7,6.1
		C205.4,145.4,205.7,145.2,206.1,145z"/>
	<path class="st0" d="M249.7,139.6c-0.2,0.3-0.4,0.5-0.7,0.7l2.1,4.6c0.8-0.3,1.8-0.2,2.6,0.3c1.2,0.8,1.7,2.3,1.2,3.6l6.9,3.3v-5
		c0-4.2-0.6-7.9-1.6-11.2l-10,2.5C250,138.9,249.9,139.3,249.7,139.6z"/>
	<path class="st0" d="M218.3,237.1c-0.3-0.2-0.6-0.5-0.8-0.8l-0.3,0.1c0,0.5-0.2,0.9-0.5,1.4c-0.2,0.2-0.4,0.5-0.6,0.6l0.8,1.7h3.7
		l-0.8-2.4C219.3,237.6,218.8,237.4,218.3,237.1z"/>
	<path class="st0" d="M260.3,205.7l-7.9,18.7c0.4,0.3,0.7,0.7,0.9,1.1l7.1-1.8c0.9-3.2,1.3-7,1.3-11.3v-6.7
		C261.3,205.9,260.8,205.9,260.3,205.7z"/>
	<path class="st0" d="M249.4,146.2C249.4,146.2,249.4,146.2,249.4,146.2c0.1-0.2,0.2-0.2,0.2-0.3l-2.2-4.9c-0.7,0.1-1.4-0.1-2-0.5
		c-0.3-0.2-0.5-0.4-0.7-0.6l-0.6,0.2c0.6,1.2,1,2.6,1.1,4.1L249.4,146.2z"/>
	<path class="st0" d="M248.9,147.9l-3.7-1.8V174l16.5,11.6v-13l-9.9-21.6c-0.5,0-1.1-0.2-1.6-0.5C249.4,149.8,249,148.9,248.9,147.9
		z"/>
	<path class="st0" d="M212.9,153.3l-4-2.8c-0.1,0-0.1,0.1-0.2,0.1c-1.3,0.6-2.7,0.2-3.6-0.8l-8.6,2.2v8.7l9.2,28.1
		c0.6,0,1.3,0.1,1.9,0.5c0.8,0.5,1.3,1.4,1.4,2.3l4,0.9V153.3z"/>
	<path class="st0" d="M212.9,147.9l-2.5,0.6c-0.1,0.3-0.2,0.5-0.3,0.8l2.8,2V147.9z"/>
	<path class="st0" d="M216.9,234.6L216.9,234.6c0.1-0.6,0.2-1.2,0.6-1.8c0.2-0.3,0.4-0.5,0.6-0.7l-2.2-6.6h-3v-9.1l-7.1-21.7
		c-0.6,0-1.2-0.2-1.7-0.5c-0.8-0.5-1.3-1.4-1.4-2.4l-6.3-1.4v4.5l17.3,37.9c0.7-0.1,1.5,0,2.1,0.5
		C216.3,233.8,216.7,234.2,216.9,234.6z"/>
	<path class="st0" d="M219.7,231.5c0.7-0.1,1.4,0.1,2,0.5c0.5,0.3,0.8,0.7,1.1,1.2l24.7-6.2c0-0.6,0.1-1.3,0.5-1.9
		c0.6-1,1.7-1.5,2.8-1.4l8-18.9c-0.2-0.2-0.4-0.5-0.5-0.7l-13-2.8v12.9c0,4-0.9,7-2.8,8.7c-1.8,1.8-4.8,2.7-8.8,2.7h-15.9
		L219.7,231.5z"/>
	<path class="st0" d="M208.4,193.5c-0.2,0.4-0.6,0.7-0.9,0.9l5.4,16.5v-16.7l-4.4-1C208.5,193.3,208.5,193.4,208.4,193.5z"/>
	<path class="st0" d="M253.1,228.5c-0.7,1-1.9,1.5-3,1.4l-3.5,8.3c3.4-1,6.1-2.5,8.2-4.4c2.2-2,3.9-4.7,5-8l-6.3,1.6
		C253.5,227.7,253.3,228.1,253.1,228.5z"/>
	<path class="st0" d="M248.1,228.7l-25,6.2c-0.1,0.5-0.2,0.9-0.5,1.3c-0.3,0.4-0.7,0.7-1.1,1l0.9,2.8h9.7c4.7,0,8.8-0.4,12.3-1.3
		l4.1-9.6C248.3,229,248.2,228.8,248.1,228.7z"/>
	<path class="st0" d="M253.6,150.4l8.1,17.9v-14.2l-7.9-3.8C253.8,150.3,253.7,150.4,253.6,150.4z"/>
	<path class="st0" d="M248.8,135.4c0.5,0.4,0.9,0.9,1.2,1.4l9.6-2.4c-1.4-3.3-3.3-6-5.9-8.1c-3.4-2.7-8-4.6-13.6-5.6l6.5,14.2
		C247.3,134.8,248.1,134.9,248.8,135.4z"/>
	<path class="st0" d="M203.3,190.1c0.2-0.3,0.5-0.6,0.7-0.8l-7.6-23.1v22.6l6.7,1.5C203.2,190.2,203.2,190.2,203.3,190.1z"/>
	<path class="st0" d="M211.6,234.4c0.2-0.2,0.3-0.4,0.5-0.6l-15.7-34.4v40.4l14.6-3.7C211.1,235.5,211.2,234.9,211.6,234.4z"/>
	<path class="st0" d="M212.5,238.6c-0.4-0.2-0.6-0.5-0.9-0.9l-9.1,2.3H215l-0.4-0.9C213.9,239.2,213.1,239,212.5,238.6z"/>
	<path class="st0" d="M333.8,185.1l-9.6-7.6c-0.3,0.2-0.6,0.3-0.9,0.4l-1,7.2H333.8z"/>
	<path class="st0" d="M295.6,226.9c0.1,0.2,0.1,0.5,0.1,0.7l4.3,0.9c0.4-0.5,0.9-0.9,1.6-1.1c0.4-0.1,0.9-0.2,1.3-0.1l0.6-1.3h-5.7
		v-34.4l-14.4,8.9c0.1,0.7,0,1.5-0.5,2.1c-0.1,0.2-0.2,0.3-0.4,0.5l9.9,21.7C293.8,224.6,295.2,225.5,295.6,226.9z"/>
	<path class="st0" d="M289.7,152.6c-0.1-0.2-0.3-0.3-0.4-0.5c-0.4-0.7-0.5-1.5-0.3-2.3l-7.8-6.1v36.8c0.3-0.3,0.6-0.5,1-0.6
		L289.7,152.6z"/>
	<path class="st0" d="M325.5,175.8c0,0.1-0.1,0.3-0.2,0.4l9.9,7.9v-13h-4.4l-5.4,3.3C325.6,174.8,325.6,175.3,325.5,175.8z"/>
	<path class="st0" d="M316.2,235.9c-0.2,0.1-0.4,0.1-0.6,0.1l-0.5,4h24.4v-1.4l-21.4-4.5C317.8,234.9,317.1,235.6,316.2,235.9z"/>
	<path class="st0" d="M289.7,228.8c-0.1-0.2-0.1-0.5-0.1-0.7l-8.3-1.8V240h14.1c0-0.2,0-0.5,0.1-0.7c0.2-0.6,0.5-1.1,1-1.5l-3.2-7
		C291.7,231.1,290.2,230.3,289.7,228.8z"/>
	<path class="st0" d="M316.4,230.1c0.8,0.3,1.5,1,1.8,1.9c0,0.1,0,0.2,0.1,0.3l21.3,4.5v-10.9h-22.6L316.4,230.1z"/>
	<path class="st0" d="M322.3,171.9l0.1-0.9h-3.7l1.9,1.5C321.1,172.2,321.7,171.9,322.3,171.9z"/>
	<path class="st0" d="M300.9,121.5l3.5-1.5H301l-0.4,1.3C300.7,121.4,300.8,121.4,300.9,121.5z"/>
	<path class="st0" d="M299.6,231.2c-0.1-0.4-0.1-0.7-0.1-1.1l-4.1-0.9c-0.1,0.3-0.3,0.5-0.6,0.7l3.2,7.1c0.1,0,0.3,0,0.4,0l2-4.6
		C300.1,232.2,299.8,231.7,299.6,231.2z"/>
	<path class="st0" d="M312.3,233.9c-0.1-0.4-0.2-0.7-0.1-1.1l-6.8-1.4c-0.3,0.8-1,1.5-1.9,1.8c-0.5,0.2-0.9,0.2-1.4,0.1l-1.9,4.3
		c0.8,0.5,1.4,1.4,1.4,2.4h11.8l0.6-4.3C313.1,235.4,312.6,234.7,312.3,233.9z"/>
	<polygon class="st0" points="339.5,134.1 339.5,120 319.2,120 336.7,134.1 	"/>
	<rect x="319.2" y="120" class="st0" width="20.3" height="0"/>
	<path class="st0" d="M305.4,225.9l-0.9,2c0.4,0.4,0.8,0.8,1,1.4c0,0.1,0,0.2,0.1,0.3l7.2,1.5c0.4-0.5,0.9-0.9,1.5-1.1
		c0.1,0,0.2,0,0.3-0.1l0.5-4.1H305.4z"/>
	<path class="st0" d="M327.6,171h-3.4l-0.2,1.3c0.2,0.1,0.5,0.3,0.6,0.5L327.6,171z"/>
	<path class="st0" d="M300.4,126.5c-0.4,0.2-0.9,0.4-1.3,0.4l-5.7,20.9c0.5,0.3,1,0.7,1.3,1.2c0.6,1,0.5,2.1,0,3l3.1,2.4v-20.4h36.1
		L316.4,120h-7.5l-7,3C302.2,124.3,301.7,125.8,300.4,126.5z"/>
	<path class="st0" d="M290.5,147.9c0.2-0.1,0.4-0.2,0.6-0.3l5.9-21.4c-0.2-0.2-0.5-0.4-0.6-0.7l-15,6.6v9.4l8.7,6.8
		C290.1,148.1,290.3,148,290.5,147.9z"/>
	<path class="st0" d="M297.7,188l-12.7-2.7c-0.2,0.1-0.5,0.3-0.7,0.4c-0.4,0.1-0.8,0.2-1.2,0.1l-1.8,6.4v5.8
		c0.2,0.1,0.5,0.2,0.7,0.3c0.2,0.1,0.4,0.3,0.6,0.5l15.2-9.4V188z"/>
	<path class="st0" d="M308.1,185.1h12.5l1-7.2c-0.3-0.1-0.7-0.3-0.9-0.5L308.1,185.1z"/>
	<path class="st0" d="M284.6,179.9c0.7,0.4,1.4,1,1.6,1.8c0.2,0.7,0.2,1.4,0,2l11.5,2.4v-1.1h7l14.8-9.2c-0.2-0.6-0.2-1.2,0-1.8
		c0-0.1,0.1-0.1,0.1-0.2l-3.7-2.9h-18.2v-14.3l-4.3-3.4c-0.5,0.3-1.1,0.4-1.6,0.3L284.6,179.9z"/>
	<path class="st0" d="M295.8,123.7c0-1,0.6-2,1.5-2.6c0.3-0.2,0.7-0.3,1-0.4l0.2-0.8h-17.4v10.2L295.8,123.7z"/>
	<polygon class="st0" points="286.8,217.3 287,217.2 281.3,204.5 281.3,218.6 286.8,217.2 	"/>
	<path class="st0" d="M281.3,224.5l8.7,1.8c0.2-0.4,0.5-0.7,0.8-0.9l-3-6.6l-6.5,1.6V224.5z"/>
	<g>
		<path class="st0" d="M248.8,135.4c0.5,0.4,0.9,0.9,1.2,1.4l9.6-2.4c-1.4-3.3-3.3-6-5.9-8.1c-3.4-2.7-8-4.6-13.6-5.6l6.5,14.2
			C247.3,134.8,248.1,134.9,248.8,135.4z"/>
		<path class="st0" d="M39,128.4h-4.4c-1.8,0-3.2,0.5-4.3,1.6c-1.1,1.1-1.6,2.3-1.6,3.8v29.1c0,1.5,0.5,2.7,1.6,3.8
			c1.1,1.1,2.5,1.6,4.3,1.6H39c1.8,0,3.2-0.5,4.3-1.6c1.1-1.1,1.6-2.3,1.6-3.8v-29.1c0-1.5-0.5-2.7-1.6-3.8
			C42.2,128.9,40.8,128.4,39,128.4z M43.5,162.9c0,1.1-0.4,1.9-1.2,2.7c-0.8,0.8-1.9,1.2-3.3,1.2h-4.4c-1.4,0-2.5-0.4-3.3-1.2
			c-0.8-0.8-1.2-1.6-1.2-2.7v-29.1c0-1.1,0.4-1.9,1.2-2.7c0.8-0.8,1.9-1.2,3.3-1.2H39c1.4,0,2.5,0.4,3.3,1.2
			c0.8,0.8,1.2,1.6,1.2,2.7V162.9z"/>
		<path class="st0" d="M38.3,121.1h-2.9c-4.7,0-8.3,1.2-10.9,3.5c-2.6,2.4-3.9,5.9-3.9,10.5v26.3c0,4.6,1.3,8.1,3.9,10.5
			c2.6,2.3,6.2,3.5,10.9,3.5h2.9c4.7,0,8.3-1.2,10.9-3.5c2.6-2.4,3.9-5.9,3.9-10.5v-26.3c0-4.6-1.3-8.1-3.9-10.5
			C46.6,122.3,43,121.1,38.3,121.1z M51.7,161.5c0,4.2-1.2,7.3-3.5,9.4c-2.3,2.1-5.6,3.1-9.9,3.1h-2.9c-4.3,0-7.6-1.1-9.9-3.1
			c-2.3-2.1-3.5-5.3-3.5-9.4v-26.3c0-4.2,1.2-7.3,3.5-9.4c2.3-2.1,5.6-3.1,9.9-3.1h2.9c4.3,0,7.6,1.1,9.9,3.1
			c2.3,2.1,3.5,5.3,3.5,9.4V161.5z"/>
		<path class="st0" d="M249.4,146.1c0.1-0.1,0.1-0.2,0.2-0.2l-2.2-4.9c-0.7,0.1-1.4-0.1-2-0.5c-0.3-0.2-0.5-0.4-0.7-0.6l-0.6,0.2
			c0.6,1.2,1,2.6,1.1,4.1L249.4,146.1C249.4,146.2,249.4,146.2,249.4,146.1z"/>
		<path class="st0" d="M206.1,145c1.5-0.7,3.4,0,4.1,1.5c0,0.1,0,0.1,0.1,0.2l2.7-0.7v-11.6h8l-24.5-11.8v17l8.7,6.1
			C205.4,145.4,205.7,145.2,206.1,145z"/>
		<path class="st0" d="M261.8,172.5l-9.9-21.6c-0.5,0-1.1-0.2-1.6-0.5c-0.9-0.6-1.3-1.5-1.4-2.5l-3.7-1.8V174l16.5,11.6V172.5z"/>
		<path class="st0" d="M212.9,147.9l-2.5,0.6c-0.1,0.3-0.2,0.5-0.3,0.8l2.8,2V147.9z"/>
		<path class="st0" d="M130.1,167h-18.2v-15.2h16.3v-8.6h-16.3v-13.5h18.2v-8.6h-27.8v54.4h27.8V167z M128.6,174.1h-24.9v-51.5h24.9
			v5.6h-18.2v16.4h16.3v5.6h-16.3v18.1h18.2V174.1z"/>
		<path class="st0" d="M71.3,155.6h6c4.5,0,8-1.1,10.4-3.2c2.5-2.2,3.7-5.5,3.7-9.9v-8.3c0-4.4-1.3-7.7-3.8-9.9
			c-2.4-2.1-6-3.1-10.5-3.1H61.7v54.4h9.6V155.6z M69.8,174.1h-6.7v-51.5h14c4.2,0,7.4,0.9,9.5,2.8c2.2,1.8,3.2,4.8,3.2,8.8v8.3
			c0,4-1.1,7-3.2,8.9c-2.1,1.9-5.3,2.9-9.4,2.9h-7.5V174.1z"/>
		<path class="st0" d="M82,147.2c0.8-0.8,1.2-2.2,1.2-4v-9.7c0-1.8-0.4-3.1-1.2-3.9c-0.8-0.8-2.2-1.2-4-1.2h-8.2v20H78
			C79.9,148.4,81.2,148,82,147.2z M71.3,129.8H78c1.4,0,2.4,0.3,3,0.8c0.5,0.5,0.8,1.5,0.8,2.9v9.7c0,1.4-0.3,2.4-0.8,2.9
			c-0.5,0.5-1.5,0.8-2.9,0.8h-6.8V129.8z"/>
		<path class="st0" d="M212.9,153.3l-4-2.8c-0.1,0-0.1,0.1-0.2,0.1c-1.3,0.6-2.7,0.2-3.6-0.8l-8.6,2.2v8.7l9.2,28.1
			c0.6,0,1.3,0.1,1.9,0.5c0.8,0.5,1.3,1.4,1.4,2.3l4,0.9V153.3z"/>
		<path class="st0" d="M249.7,139.6c-0.2,0.3-0.4,0.5-0.7,0.7l2.1,4.6c0.8-0.3,1.8-0.2,2.6,0.3c1.2,0.8,1.7,2.3,1.2,3.6l6.9,3.3v-5
			c0-4.2-0.6-7.9-1.6-11.2l-10,2.5C250,138.9,249.9,139.3,249.7,139.6z"/>
		<path class="st0" d="M208.4,193.5c-0.2,0.4-0.6,0.7-0.9,0.9l5.4,16.5v-16.7l-4.4-1C208.5,193.3,208.5,193.4,208.4,193.5z"/>
		<path class="st0" d="M219.7,231.5c0.7-0.1,1.4,0.1,2,0.5c0.5,0.3,0.8,0.7,1.1,1.2l24.7-6.2c0-0.6,0.1-1.3,0.5-1.9
			c0.6-1,1.7-1.5,2.8-1.4l8-18.9c-0.2-0.2-0.4-0.5-0.5-0.7l-13-2.8v12.9c0,4-0.9,7-2.8,8.7c-1.8,1.8-4.8,2.7-8.8,2.7h-15.9
			L219.7,231.5z"/>
		<path class="st0" d="M322.3,171.9l0.1-0.9h-3.7l1.9,1.5C321.1,172.2,321.7,171.9,322.3,171.9z"/>
		<path class="st0" d="M293.4,153.3c-0.5,0.3-1.1,0.4-1.6,0.3l-7.2,26.3c0.7,0.4,1.4,1,1.6,1.8c0.2,0.7,0.2,1.4,0,2l11.5,2.4v-1.1h7
			l14.8-9.2c-0.2-0.6-0.2-1.2,0-1.8c0-0.1,0.1-0.1,0.1-0.2l-3.7-2.9h-18.2v-14.3L293.4,153.3z"/>
		<polygon class="st0" points="286.8,217.3 287,217.2 281.3,204.5 281.3,218.6 286.8,217.2 		"/>
		<path class="st0" d="M333.8,185.1l-9.6-7.6c-0.3,0.2-0.6,0.3-0.9,0.4l-1,7.2H333.8z"/>
		<path class="st0" d="M327.6,171h-3.4l-0.2,1.3c0.2,0.1,0.5,0.3,0.6,0.5L327.6,171z"/>
		<path class="st0" d="M325.5,175.8c0,0.1-0.1,0.3-0.2,0.4l9.9,7.9v-13h-4.4l-5.4,3.3C325.6,174.8,325.6,175.3,325.5,175.8z"/>
		<path class="st0" d="M308.1,185.1h12.5l1-7.2c-0.3-0.1-0.7-0.3-0.9-0.5L308.1,185.1z"/>
		<path class="st0" d="M289.7,152.6c-0.1-0.2-0.3-0.3-0.4-0.5c-0.4-0.7-0.5-1.5-0.3-2.3l-7.8-6.1v36.8c0.3-0.3,0.6-0.5,1-0.6
			L289.7,152.6z"/>
		<path class="st0" d="M290.5,147.9c0.2-0.1,0.4-0.2,0.6-0.3l5.9-21.4c-0.2-0.2-0.5-0.4-0.6-0.7l-15,6.6v9.4l8.7,6.8
			C290.1,148.1,290.3,148,290.5,147.9z"/>
		<path class="st0" d="M295.6,226.9c0.1,0.2,0.1,0.5,0.1,0.7l4.3,0.9c0.4-0.5,0.9-0.9,1.6-1.1c0.4-0.1,0.9-0.2,1.3-0.1l0.6-1.3h-5.7
			v-34.4l-14.4,8.9c0.1,0.7,0,1.5-0.5,2.1c-0.1,0.2-0.2,0.3-0.4,0.5l9.9,21.7C293.8,224.6,295.2,225.5,295.6,226.9z"/>
		<path class="st0" d="M281.3,224.5l8.7,1.8c0.2-0.4,0.5-0.7,0.8-0.9l-3-6.6l-6.5,1.6V224.5z"/>
		<path class="st0" d="M297.7,188l-12.7-2.7c-0.2,0.1-0.5,0.3-0.7,0.4c-0.4,0.1-0.8,0.2-1.2,0.1l-1.8,6.4v5.8
			c0.2,0.1,0.5,0.2,0.7,0.3c0.2,0.1,0.4,0.3,0.6,0.5l15.2-9.4V188z"/>
		<path class="st0" d="M149.4,141.1l8.4,33.2l0.3,1.2h13.4v-54.4h-9.2v34.5l-8.7-34.5h-13.3v54.4h9.2V141.1z M147.9,174.1h-6.3
			v-51.5h10.7l11.3,44.7v-44.7h6.3v51.5h-10.8l-11.3-44.7V174.1z"/>
		<path class="st0" d="M253.1,228.5c-0.7,1-1.9,1.5-3,1.4l-3.5,8.3c3.4-1,6.1-2.5,8.2-4.4c2.2-2,3.9-4.7,5-8l-6.3,1.6
			C253.5,227.7,253.3,228.1,253.1,228.5z"/>
		<path class="st0" d="M248.1,228.7l-25,6.2c-0.1,0.5-0.2,0.9-0.5,1.3c-0.3,0.4-0.7,0.7-1.1,1l0.9,2.8h9.7c4.7,0,8.8-0.4,12.3-1.3
			l4.1-9.6C248.3,229,248.2,228.8,248.1,228.7z"/>
		<path class="st0" d="M260.3,205.7l-7.9,18.7c0.4,0.3,0.7,0.7,0.9,1.1l7.1-1.8c0.9-3.2,1.3-7,1.3-11.3v-6.7
			C261.3,205.9,260.8,205.9,260.3,205.7z"/>
		<path class="st0" d="M218.3,237.1c-0.3-0.2-0.6-0.5-0.8-0.8l-0.3,0.1c0,0.5-0.2,0.9-0.5,1.4c-0.2,0.2-0.4,0.5-0.6,0.6l0.8,1.7h3.7
			l-0.8-2.4C219.3,237.6,218.8,237.4,218.3,237.1z"/>
		<path class="st0" d="M245.3,199.5l12.7,2.8c0.1-0.4,0.2-0.8,0.5-1.2c0.6-0.9,1.5-1.3,2.5-1.4l0.8-2v-10l-16.5-11.6V199.5z"/>
		<path class="st0" d="M211.6,234.4c0.2-0.2,0.3-0.4,0.5-0.6l-15.7-34.4v40.4l14.6-3.7C211.1,235.5,211.2,234.9,211.6,234.4z"/>
		<path class="st0" d="M216.9,234.6L216.9,234.6c0.1-0.6,0.2-1.2,0.6-1.8c0.2-0.3,0.4-0.5,0.6-0.7l-2.2-6.6h-3v-9.1l-7.1-21.7
			c-0.6,0-1.2-0.2-1.7-0.5c-0.8-0.5-1.3-1.4-1.4-2.4l-6.3-1.4v4.5l17.3,37.9c0.7-0.1,1.5,0,2.1,0.5
			C216.3,233.8,216.7,234.2,216.9,234.6z"/>
		<path class="st0" d="M212.5,238.6c-0.4-0.2-0.6-0.5-0.9-0.9l-9.1,2.3H215l-0.4-0.9C213.9,239.2,213.1,239,212.5,238.6z"/>
		<path class="st0" d="M203.3,190.1c0.2-0.3,0.5-0.6,0.7-0.8l-7.6-23.1v22.6l6.7,1.5C203.2,190.2,203.2,190.2,203.3,190.1z"/>
		<path class="st0" d="M204.4,147.3l-7.9-5.6v8.4l7.9-2C204.3,147.9,204.3,147.6,204.4,147.3z"/>
		<path class="st0" d="M289.7,228.8c-0.1-0.2-0.1-0.5-0.1-0.7l-8.3-1.8V240h14.1c0-0.2,0-0.5,0.1-0.7c0.2-0.6,0.5-1.1,1-1.5l-3.2-7
			C291.7,231.1,290.2,230.3,289.7,228.8z"/>
		<path class="st0" d="M253.6,150.4l8.1,17.9v-14.2l-7.9-3.8C253.8,150.3,253.7,150.4,253.6,150.4z"/>
		<path class="st0" d="M299.6,231.2c-0.1-0.4-0.1-0.7-0.1-1.1l-4.1-0.9c-0.1,0.3-0.3,0.5-0.6,0.7l3.2,7.1c0.1,0,0.3,0,0.4,0l2-4.6
			C300.1,232.2,299.8,231.7,299.6,231.2z"/>
		<path class="st0" d="M305.4,225.9l-0.9,2c0.4,0.4,0.8,0.8,1,1.4c0,0.1,0,0.2,0.1,0.3l7.2,1.5c0.4-0.5,0.9-0.9,1.5-1.1
			c0.1,0,0.2,0,0.3-0.1l0.5-4.1H305.4z"/>
		<path class="st0" d="M312.3,233.9c-0.1-0.4-0.2-0.7-0.1-1.1l-6.8-1.4c-0.3,0.8-1,1.5-1.9,1.8c-0.5,0.2-0.9,0.2-1.4,0.1l-1.9,4.3
			c0.8,0.5,1.4,1.4,1.4,2.4h11.8l0.6-4.3C313.1,235.4,312.6,234.7,312.3,233.9z"/>
		<path class="st0" d="M316.9,225.9l-0.6,4.2c0.8,0.3,1.5,1,1.8,1.9c0,0.1,0,0.2,0.1,0.3l21.3,4.5v-10.9H316.9z"/>
		<path class="st0" d="M316.2,235.9c-0.2,0.1-0.4,0.1-0.6,0.1l-0.5,4h24.4v-1.4l-21.4-4.5C317.8,234.9,317.1,235.6,316.2,235.9z"/>
		<path class="st0" d="M47.1,189.5c-2.2-1.8-5.6-2.7-10-2.7H22.9v51.5H38c4.4,0,7.6-0.9,9.6-2.7c1.9-1.8,2.9-4.8,2.9-9v-28.2
			C50.5,194.3,49.3,191.3,47.1,189.5z M43.9,227.3c0,1.8-0.4,3.1-1.3,3.9c-0.8,0.8-2.2,1.2-4,1.2h-9.2v-39.9h9.2
			c1.6,0,2.8,0.5,3.8,1.4c0.9,0.9,1.4,2.1,1.4,3.7V227.3z"/>
		<path class="st0" d="M48,188.4L48,188.4c-2.5-2-6.2-3-10.9-3H21.4v54.4H38c4.8,0,8.4-1,10.6-3.1c2.3-2.1,3.4-5.5,3.4-10.1v-28.2
			C51.9,193.8,50.6,190.4,48,188.4z M51.2,226.6c0,4.4-1.1,7.6-3.2,9.6C46,238,42.6,239,38,239H22.1v-52.9h15c4.5,0,8,1,10.4,2.9
			c2.4,1.9,3.7,5.1,3.7,9.4V226.6z"/>
		<path class="st0" d="M38.7,193.3h-8.5v38.5h8.4c1.6,0,2.8-0.3,3.5-1c0.7-0.7,1-1.8,1-3.4v-29.6c0-1.4-0.4-2.4-1.2-3.2
			C41.1,193.7,40.1,193.3,38.7,193.3z M42.4,227.3c0,1.4-0.3,2.4-0.8,2.9c-0.6,0.5-1.6,0.8-3,0.8h-7.7v-37h7.8c1.2,0,2.1,0.3,2.7,1
			c0.7,0.6,1,1.5,1,2.7V227.3z"/>
		<path class="st0" d="M47.5,188.9c-2.4-1.9-5.9-2.9-10.4-2.9h-15V239H38c4.6,0,8-1,10.1-2.9c2.1-1.9,3.2-5.1,3.2-9.6v-28.2
			C51.2,194,50,190.9,47.5,188.9z M50.5,226.6c0,4.2-1,7.3-2.9,9c-1.9,1.8-5.2,2.7-9.6,2.7H22.9v-51.5h14.2c4.4,0,7.7,0.9,10,2.7
			c2.3,1.8,3.4,4.8,3.4,8.9V226.6z"/>
		<path class="st0" d="M38.7,192.6h-9.2v39.9h9.2c1.8,0,3.1-0.4,4-1.2c0.8-0.8,1.3-2.1,1.3-3.9v-29.6c0-1.6-0.5-2.8-1.4-3.7
			C41.5,193,40.3,192.6,38.7,192.6z M43.1,227.3c0,1.6-0.4,2.8-1,3.4c-0.7,0.7-1.9,1-3.5,1h-8.4v-38.5h8.5c1.4,0,2.4,0.4,3.2,1.2
			c0.8,0.8,1.2,1.8,1.2,3.2V227.3z"/>
		<path class="st0" d="M72.3,186.8l-12.3,51.5h6.8l2.8-12.9h13.9l2.8,12.9H93l-12.1-51.5H72.3z M70.7,219.6l5.7-27.1l5.8,27.1H70.7z
			"/>
		<path class="st0" d="M81.3,218.8L76.5,196l-4.8,22.8H81.3z M76.5,199.5l4,18.6h-7.9L76.5,199.5z"/>
		<path class="st0" d="M71.1,185.3l-13,54.4h9.8l2.8-12.9h11.6l2.8,12.9h9.8L82,185.3H71.1z M85.6,239l-2.8-12.9H70.1L67.3,239H59
			l12.7-52.9h9.7L93.9,239H85.6z"/>
		<path class="st0" d="M70.7,219.6h11.5l-5.8-27.1L70.7,219.6z M81.3,218.8h-9.7l4.8-22.8L81.3,218.8z"/>
		<path class="st0" d="M71.7,186.1L59,239h8.3l2.8-12.9h12.8l2.8,12.9h8.3l-12.5-52.9H71.7z M86.2,238.3l-2.8-12.9H69.5l-2.8,12.9
			h-6.8l12.3-51.5h8.6L93,238.3H86.2z"/>
		<polygon class="st0" points="112.9,238.3 119.5,238.3 119.5,192.7 131.1,192.7 131.1,186.8 101.3,186.8 101.3,192.7 112.9,192.7 
					"/>
		<path class="st0" d="M99.9,194.1h11.6v45.6h9.5v-45.6h11.6v-8.8H99.9V194.1z M100.6,186.1h31.2v7.3h-11.6V239h-8.1v-45.6h-11.6
			V186.1z"/>
		<path class="st0" d="M112.2,239h8.1v-45.6h11.6v-7.3h-31.2v7.3h11.6V239z M101.3,192.7v-5.9h29.8v5.9h-11.6v45.6h-6.6v-45.6H101.3
			z"/>
		<path class="st0" d="M151.8,186.8l-12.3,51.5h6.8l2.8-12.9H163l2.8,12.9h6.8l-12.1-51.5H151.8z M150.3,219.6l5.7-27.1l5.8,27.1
			H150.3z"/>
		<path class="st0" d="M150.7,185.3l-13,54.4h9.8l2.8-12.9h11.6l2.8,12.9h9.8l-12.8-54.4H150.7z M165.2,239l-2.8-12.9h-12.8
			l-2.8,12.9h-8.3l12.7-52.9h9.7l12.5,52.9H165.2z"/>
		<path class="st0" d="M160.9,218.8L156,196l-4.8,22.8H160.9z M156,199.5l4,18.6h-7.9L156,199.5z"/>
		<path class="st0" d="M151.3,186.1L138.6,239h8.3l2.8-12.9h12.8l2.8,12.9h8.3L161,186.1H151.3z M165.8,238.3l-2.8-12.9h-13.9
			l-2.8,12.9h-6.8l12.3-51.5h8.6l12.1,51.5H165.8z"/>
		<path class="st0" d="M150.3,219.6h11.5l-5.8-27.1L150.3,219.6z M160.9,218.8h-9.7L156,196L160.9,218.8z"/>
	</g>
</g>
<g>
	<g>
		<path class="st0" d="M248.8,135.4c0.5,0.4,0.9,0.9,1.2,1.4l9.6-2.4c-1.4-3.3-3.3-6-5.9-8.1c-3.4-2.7-8-4.6-13.6-5.6l6.5,14.2
			C247.3,134.8,248.1,134.9,248.8,135.4z"/>
		<path class="st0" d="M39,128.4h-4.4c-1.8,0-3.2,0.5-4.3,1.6c-1.1,1.1-1.6,2.3-1.6,3.8v29.1c0,1.5,0.5,2.7,1.6,3.8
			c1.1,1.1,2.5,1.6,4.3,1.6H39c1.8,0,3.2-0.5,4.3-1.6c1.1-1.1,1.6-2.3,1.6-3.8v-29.1c0-1.5-0.5-2.7-1.6-3.8
			C42.2,128.9,40.8,128.4,39,128.4z M43.5,162.9c0,1.1-0.4,1.9-1.2,2.7c-0.8,0.8-1.9,1.2-3.3,1.2h-4.4c-1.4,0-2.5-0.4-3.3-1.2
			c-0.8-0.8-1.2-1.6-1.2-2.7v-29.1c0-1.1,0.4-1.9,1.2-2.7c0.8-0.8,1.9-1.2,3.3-1.2H39c1.4,0,2.5,0.4,3.3,1.2
			c0.8,0.8,1.2,1.6,1.2,2.7V162.9z"/>
		<path class="st0" d="M38.3,121.1h-2.9c-4.7,0-8.3,1.2-10.9,3.5c-2.6,2.4-3.9,5.9-3.9,10.5v26.3c0,4.6,1.3,8.1,3.9,10.5
			c2.6,2.3,6.2,3.5,10.9,3.5h2.9c4.7,0,8.3-1.2,10.9-3.5c2.6-2.4,3.9-5.9,3.9-10.5v-26.3c0-4.6-1.3-8.1-3.9-10.5
			C46.6,122.3,43,121.1,38.3,121.1z M51.7,161.5c0,4.2-1.2,7.3-3.5,9.4c-2.3,2.1-5.6,3.1-9.9,3.1h-2.9c-4.3,0-7.6-1.1-9.9-3.1
			c-2.3-2.1-3.5-5.3-3.5-9.4v-26.3c0-4.2,1.2-7.3,3.5-9.4c2.3-2.1,5.6-3.1,9.9-3.1h2.9c4.3,0,7.6,1.1,9.9,3.1
			c2.3,2.1,3.5,5.3,3.5,9.4V161.5z"/>
		<path class="st0" d="M249.4,146.1c0.1-0.1,0.1-0.2,0.2-0.2l-2.2-4.9c-0.7,0.1-1.4-0.1-2-0.5c-0.3-0.2-0.5-0.4-0.7-0.6l-0.6,0.2
			c0.6,1.2,1,2.6,1.1,4.1L249.4,146.1C249.4,146.2,249.4,146.2,249.4,146.1z"/>
		<path class="st0" d="M206.1,145c1.5-0.7,3.4,0,4.1,1.5c0,0.1,0,0.1,0.1,0.2l2.7-0.7v-11.6h8l-24.5-11.8v17l8.7,6.1
			C205.4,145.4,205.7,145.2,206.1,145z"/>
		<path class="st0" d="M261.8,172.5l-9.9-21.6c-0.5,0-1.1-0.2-1.6-0.5c-0.9-0.6-1.3-1.5-1.4-2.5l-3.7-1.8V174l16.5,11.6V172.5z"/>
		<path class="st0" d="M212.9,147.9l-2.5,0.6c-0.1,0.3-0.2,0.5-0.3,0.8l2.8,2V147.9z"/>
		<path class="st0" d="M130.1,167h-18.2v-15.2h16.3v-8.6h-16.3v-13.5h18.2v-8.6h-27.8v54.4h27.8V167z M128.6,174.1h-24.9v-51.5h24.9
			v5.6h-18.2v16.4h16.3v5.6h-16.3v18.1h18.2V174.1z"/>
		<path class="st0" d="M71.3,155.6h6c4.5,0,8-1.1,10.4-3.2c2.5-2.2,3.7-5.5,3.7-9.9v-8.3c0-4.4-1.3-7.7-3.8-9.9
			c-2.4-2.1-6-3.1-10.5-3.1H61.7v54.4h9.6V155.6z M69.8,174.1h-6.7v-51.5h14c4.2,0,7.4,0.9,9.5,2.8c2.2,1.8,3.2,4.8,3.2,8.8v8.3
			c0,4-1.1,7-3.2,8.9c-2.1,1.9-5.3,2.9-9.4,2.9h-7.5V174.1z"/>
		<path class="st0" d="M82,147.2c0.8-0.8,1.2-2.2,1.2-4v-9.7c0-1.8-0.4-3.1-1.2-3.9c-0.8-0.8-2.2-1.2-4-1.2h-8.2v20H78
			C79.9,148.4,81.2,148,82,147.2z M71.3,129.8H78c1.4,0,2.4,0.3,3,0.8c0.5,0.5,0.8,1.5,0.8,2.9v9.7c0,1.4-0.3,2.4-0.8,2.9
			c-0.5,0.5-1.5,0.8-2.9,0.8h-6.8V129.8z"/>
		<path class="st0" d="M212.9,153.3l-4-2.8c-0.1,0-0.1,0.1-0.2,0.1c-1.3,0.6-2.7,0.2-3.6-0.8l-8.6,2.2v8.7l9.2,28.1
			c0.6,0,1.3,0.1,1.9,0.5c0.8,0.5,1.3,1.4,1.4,2.3l4,0.9V153.3z"/>
		<path class="st0" d="M249.7,139.6c-0.2,0.3-0.4,0.5-0.7,0.7l2.1,4.6c0.8-0.3,1.8-0.2,2.6,0.3c1.2,0.8,1.7,2.3,1.2,3.6l6.9,3.3v-5
			c0-4.2-0.6-7.9-1.6-11.2l-10,2.5C250,138.9,249.9,139.3,249.7,139.6z"/>
		<path class="st0" d="M208.4,193.5c-0.2,0.4-0.6,0.7-0.9,0.9l5.4,16.5v-16.7l-4.4-1C208.5,193.3,208.5,193.4,208.4,193.5z"/>
		<path class="st0" d="M219.7,231.5c0.7-0.1,1.4,0.1,2,0.5c0.5,0.3,0.8,0.7,1.1,1.2l24.7-6.2c0-0.6,0.1-1.3,0.5-1.9
			c0.6-1,1.7-1.5,2.8-1.4l8-18.9c-0.2-0.2-0.4-0.5-0.5-0.7l-13-2.8v12.9c0,4-0.9,7-2.8,8.7c-1.8,1.8-4.8,2.7-8.8,2.7h-15.9
			L219.7,231.5z"/>
		<path class="st0" d="M322.3,171.9l0.1-0.9h-3.7l1.9,1.5C321.1,172.2,321.7,171.9,322.3,171.9z"/>
		<path class="st0" d="M293.4,153.3c-0.5,0.3-1.1,0.4-1.6,0.3l-7.2,26.3c0.7,0.4,1.4,1,1.6,1.8c0.2,0.7,0.2,1.4,0,2l11.5,2.4v-1.1h7
			l14.8-9.2c-0.2-0.6-0.2-1.2,0-1.8c0-0.1,0.1-0.1,0.1-0.2l-3.7-2.9h-18.2v-14.3L293.4,153.3z"/>
		<polygon class="st0" points="286.8,217.3 287,217.2 281.3,204.5 281.3,218.6 286.8,217.2 		"/>
		<path class="st0" d="M333.8,185.1l-9.6-7.6c-0.3,0.2-0.6,0.3-0.9,0.4l-1,7.2H333.8z"/>
		<path class="st0" d="M327.6,171h-3.4l-0.2,1.3c0.2,0.1,0.5,0.3,0.6,0.5L327.6,171z"/>
		<path class="st0" d="M325.5,175.8c0,0.1-0.1,0.3-0.2,0.4l9.9,7.9v-13h-4.4l-5.4,3.3C325.6,174.8,325.6,175.3,325.5,175.8z"/>
		<path class="st0" d="M308.1,185.1h12.5l1-7.2c-0.3-0.1-0.7-0.3-0.9-0.5L308.1,185.1z"/>
		<path class="st0" d="M289.7,152.6c-0.1-0.2-0.3-0.3-0.4-0.5c-0.4-0.7-0.5-1.5-0.3-2.3l-7.8-6.1v36.8c0.3-0.3,0.6-0.5,1-0.6
			L289.7,152.6z"/>
		<path class="st0" d="M290.5,147.9c0.2-0.1,0.4-0.2,0.6-0.3l5.9-21.4c-0.2-0.2-0.5-0.4-0.6-0.7l-15,6.6v9.4l8.7,6.8
			C290.1,148.1,290.3,148,290.5,147.9z"/>
		<path class="st0" d="M295.6,226.9c0.1,0.2,0.1,0.5,0.1,0.7l4.3,0.9c0.4-0.5,0.9-0.9,1.6-1.1c0.4-0.1,0.9-0.2,1.3-0.1l0.6-1.3h-5.7
			v-34.4l-14.4,8.9c0.1,0.7,0,1.5-0.5,2.1c-0.1,0.2-0.2,0.3-0.4,0.5l9.9,21.7C293.8,224.6,295.2,225.5,295.6,226.9z"/>
		<path class="st0" d="M281.3,224.5l8.7,1.8c0.2-0.4,0.5-0.7,0.8-0.9l-3-6.6l-6.5,1.6V224.5z"/>
		<path class="st0" d="M297.7,188l-12.7-2.7c-0.2,0.1-0.5,0.3-0.7,0.4c-0.4,0.1-0.8,0.2-1.2,0.1l-1.8,6.4v5.8
			c0.2,0.1,0.5,0.2,0.7,0.3c0.2,0.1,0.4,0.3,0.6,0.5l15.2-9.4V188z"/>
		<path class="st0" d="M149.4,141.1l8.4,33.2l0.3,1.2h13.4v-54.4h-9.2v34.5l-8.7-34.5h-13.3v54.4h9.2V141.1z M147.9,174.1h-6.3
			v-51.5h10.7l11.3,44.7v-44.7h6.3v51.5h-10.8l-11.3-44.7V174.1z"/>
		<path class="st0" d="M253.1,228.5c-0.7,1-1.9,1.5-3,1.4l-3.5,8.3c3.4-1,6.1-2.5,8.2-4.4c2.2-2,3.9-4.7,5-8l-6.3,1.6
			C253.5,227.7,253.3,228.1,253.1,228.5z"/>
		<path class="st0" d="M248.1,228.7l-25,6.2c-0.1,0.5-0.2,0.9-0.5,1.3c-0.3,0.4-0.7,0.7-1.1,1l0.9,2.8h9.7c4.7,0,8.8-0.4,12.3-1.3
			l4.1-9.6C248.3,229,248.2,228.8,248.1,228.7z"/>
		<path class="st0" d="M260.3,205.7l-7.9,18.7c0.4,0.3,0.7,0.7,0.9,1.1l7.1-1.8c0.9-3.2,1.3-7,1.3-11.3v-6.7
			C261.3,205.9,260.8,205.9,260.3,205.7z"/>
		<path class="st0" d="M218.3,237.1c-0.3-0.2-0.6-0.5-0.8-0.8l-0.3,0.1c0,0.5-0.2,0.9-0.5,1.4c-0.2,0.2-0.4,0.5-0.6,0.6l0.8,1.7h3.7
			l-0.8-2.4C219.3,237.6,218.8,237.4,218.3,237.1z"/>
		<path class="st0" d="M245.3,199.5l12.7,2.8c0.1-0.4,0.2-0.8,0.5-1.2c0.6-0.9,1.5-1.3,2.5-1.4l0.8-2v-10l-16.5-11.6V199.5z"/>
		<path class="st0" d="M211.6,234.4c0.2-0.2,0.3-0.4,0.5-0.6l-15.7-34.4v40.4l14.6-3.7C211.1,235.5,211.2,234.9,211.6,234.4z"/>
		<path class="st0" d="M216.9,234.6L216.9,234.6c0.1-0.6,0.2-1.2,0.6-1.8c0.2-0.3,0.4-0.5,0.6-0.7l-2.2-6.6h-3v-9.1l-7.1-21.7
			c-0.6,0-1.2-0.2-1.7-0.5c-0.8-0.5-1.3-1.4-1.4-2.4l-6.3-1.4v4.5l17.3,37.9c0.7-0.1,1.5,0,2.1,0.5
			C216.3,233.8,216.7,234.2,216.9,234.6z"/>
		<path class="st0" d="M212.5,238.6c-0.4-0.2-0.6-0.5-0.9-0.9l-9.1,2.3H215l-0.4-0.9C213.9,239.2,213.1,239,212.5,238.6z"/>
		<path class="st0" d="M203.3,190.1c0.2-0.3,0.5-0.6,0.7-0.8l-7.6-23.1v22.6l6.7,1.5C203.2,190.2,203.2,190.2,203.3,190.1z"/>
		<path class="st0" d="M204.4,147.3l-7.9-5.6v8.4l7.9-2C204.3,147.9,204.3,147.6,204.4,147.3z"/>
		<path class="st0" d="M289.7,228.8c-0.1-0.2-0.1-0.5-0.1-0.7l-8.3-1.8V240h14.1c0-0.2,0-0.5,0.1-0.7c0.2-0.6,0.5-1.1,1-1.5l-3.2-7
			C291.7,231.1,290.2,230.3,289.7,228.8z"/>
		<path class="st0" d="M253.6,150.4l8.1,17.9v-14.2l-7.9-3.8C253.8,150.3,253.7,150.4,253.6,150.4z"/>
		<path class="st0" d="M299.6,231.2c-0.1-0.4-0.1-0.7-0.1-1.1l-4.1-0.9c-0.1,0.3-0.3,0.5-0.6,0.7l3.2,7.1c0.1,0,0.3,0,0.4,0l2-4.6
			C300.1,232.2,299.8,231.7,299.6,231.2z"/>
		<path class="st0" d="M305.4,225.9l-0.9,2c0.4,0.4,0.8,0.8,1,1.4c0,0.1,0,0.2,0.1,0.3l7.2,1.5c0.4-0.5,0.9-0.9,1.5-1.1
			c0.1,0,0.2,0,0.3-0.1l0.5-4.1H305.4z"/>
		<path class="st0" d="M312.3,233.9c-0.1-0.4-0.2-0.7-0.1-1.1l-6.8-1.4c-0.3,0.8-1,1.5-1.9,1.8c-0.5,0.2-0.9,0.2-1.4,0.1l-1.9,4.3
			c0.8,0.5,1.4,1.4,1.4,2.4h11.8l0.6-4.3C313.1,235.4,312.6,234.7,312.3,233.9z"/>
		<path class="st0" d="M316.9,225.9l-0.6,4.2c0.8,0.3,1.5,1,1.8,1.9c0,0.1,0,0.2,0.1,0.3l21.3,4.5v-10.9H316.9z"/>
		<path class="st0" d="M316.2,235.9c-0.2,0.1-0.4,0.1-0.6,0.1l-0.5,4h24.4v-1.4l-21.4-4.5C317.8,234.9,317.1,235.6,316.2,235.9z"/>
		<path class="st0" d="M47.1,189.5c-2.2-1.8-5.6-2.7-10-2.7H22.9v51.5H38c4.4,0,7.6-0.9,9.6-2.7c1.9-1.8,2.9-4.8,2.9-9v-28.2
			C50.5,194.3,49.3,191.3,47.1,189.5z M43.9,227.3c0,1.8-0.4,3.1-1.3,3.9c-0.8,0.8-2.2,1.2-4,1.2h-9.2v-39.9h9.2
			c1.6,0,2.8,0.5,3.8,1.4c0.9,0.9,1.4,2.1,1.4,3.7V227.3z"/>
		<path class="st0" d="M48,188.4L48,188.4c-2.5-2-6.2-3-10.9-3H21.4v54.4H38c4.8,0,8.4-1,10.6-3.1c2.3-2.1,3.4-5.5,3.4-10.1v-28.2
			C51.9,193.8,50.6,190.4,48,188.4z M51.2,226.6c0,4.4-1.1,7.6-3.2,9.6C46,238,42.6,239,38,239H22.1v-52.9h15c4.5,0,8,1,10.4,2.9
			c2.4,1.9,3.7,5.1,3.7,9.4V226.6z"/>
		<path class="st0" d="M38.7,193.3h-8.5v38.5h8.4c1.6,0,2.8-0.3,3.5-1c0.7-0.7,1-1.8,1-3.4v-29.6c0-1.4-0.4-2.4-1.2-3.2
			C41.1,193.7,40.1,193.3,38.7,193.3z M42.4,227.3c0,1.4-0.3,2.4-0.8,2.9c-0.6,0.5-1.6,0.8-3,0.8h-7.7v-37h7.8c1.2,0,2.1,0.3,2.7,1
			c0.7,0.6,1,1.5,1,2.7V227.3z"/>
		<path class="st0" d="M47.5,188.9c-2.4-1.9-5.9-2.9-10.4-2.9h-15V239H38c4.6,0,8-1,10.1-2.9c2.1-1.9,3.2-5.1,3.2-9.6v-28.2
			C51.2,194,50,190.9,47.5,188.9z M50.5,226.6c0,4.2-1,7.3-2.9,9c-1.9,1.8-5.2,2.7-9.6,2.7H22.9v-51.5h14.2c4.4,0,7.7,0.9,10,2.7
			c2.3,1.8,3.4,4.8,3.4,8.9V226.6z"/>
		<path class="st0" d="M38.7,192.6h-9.2v39.9h9.2c1.8,0,3.1-0.4,4-1.2c0.8-0.8,1.3-2.1,1.3-3.9v-29.6c0-1.6-0.5-2.8-1.4-3.7
			C41.5,193,40.3,192.6,38.7,192.6z M43.1,227.3c0,1.6-0.4,2.8-1,3.4c-0.7,0.7-1.9,1-3.5,1h-8.4v-38.5h8.5c1.4,0,2.4,0.4,3.2,1.2
			c0.8,0.8,1.2,1.8,1.2,3.2V227.3z"/>
		<path class="st0" d="M72.3,186.8l-12.3,51.5h6.8l2.8-12.9h13.9l2.8,12.9H93l-12.1-51.5H72.3z M70.7,219.6l5.7-27.1l5.8,27.1H70.7z
			"/>
		<path class="st0" d="M81.3,218.8L76.5,196l-4.8,22.8H81.3z M76.5,199.5l4,18.6h-7.9L76.5,199.5z"/>
		<path class="st0" d="M71.1,185.3l-13,54.4h9.8l2.8-12.9h11.6l2.8,12.9h9.8L82,185.3H71.1z M85.6,239l-2.8-12.9H70.1L67.3,239H59
			l12.7-52.9h9.7L93.9,239H85.6z"/>
		<path class="st0" d="M70.7,219.6h11.5l-5.8-27.1L70.7,219.6z M81.3,218.8h-9.7l4.8-22.8L81.3,218.8z"/>
		<path class="st0" d="M71.7,186.1L59,239h8.3l2.8-12.9h12.8l2.8,12.9h8.3l-12.5-52.9H71.7z M86.2,238.3l-2.8-12.9H69.5l-2.8,12.9
			h-6.8l12.3-51.5h8.6L93,238.3H86.2z"/>
		<polygon class="st0" points="112.9,238.3 119.5,238.3 119.5,192.7 131.1,192.7 131.1,186.8 101.3,186.8 101.3,192.7 112.9,192.7 
					"/>
		<path class="st0" d="M99.9,194.1h11.6v45.6h9.5v-45.6h11.6v-8.8H99.9V194.1z M100.6,186.1h31.2v7.3h-11.6V239h-8.1v-45.6h-11.6
			V186.1z"/>
		<path class="st0" d="M112.2,239h8.1v-45.6h11.6v-7.3h-31.2v7.3h11.6V239z M101.3,192.7v-5.9h29.8v5.9h-11.6v45.6h-6.6v-45.6H101.3
			z"/>
		<path class="st0" d="M151.8,186.8l-12.3,51.5h6.8l2.8-12.9H163l2.8,12.9h6.8l-12.1-51.5H151.8z M150.3,219.6l5.7-27.1l5.8,27.1
			H150.3z"/>
		<path class="st0" d="M150.7,185.3l-13,54.4h9.8l2.8-12.9h11.6l2.8,12.9h9.8l-12.8-54.4H150.7z M165.2,239l-2.8-12.9h-12.8
			l-2.8,12.9h-8.3l12.7-52.9h9.7l12.5,52.9H165.2z"/>
		<path class="st0" d="M160.9,218.8L156,196l-4.8,22.8H160.9z M156,199.5l4,18.6h-7.9L156,199.5z"/>
		<path class="st0" d="M151.3,186.1L138.6,239h8.3l2.8-12.9h12.8l2.8,12.9h8.3L161,186.1H151.3z M165.8,238.3l-2.8-12.9h-13.9
			l-2.8,12.9h-6.8l12.3-51.5h8.6l12.1,51.5H165.8z"/>
		<path class="st0" d="M150.3,219.6h11.5l-5.8-27.1L150.3,219.6z M160.9,218.8h-9.7L156,196L160.9,218.8z"/>
	</g>
	<path class="st0" d="M224.9,134.4h8.9c3.5,0,6.2,1,8.3,3c0.3,0.3,0.6,0.7,0.9,1.1l1-0.2c-0.1-0.7,0.1-1.4,0.5-2
		c0.1-0.2,0.3-0.4,0.5-0.5l-7-15.3c-2.5-0.3-5.1-0.5-7.9-0.5h-33.7v0.7L224.9,134.4z"/>
	<path class="st0" d="M245.3,199.5l12.7,2.8c0.1-0.4,0.2-0.8,0.5-1.2c0.6-0.9,1.5-1.3,2.5-1.4l0.8-2v-10l-16.5-11.6V199.5z"/>
	<path class="st0" d="M204.4,147.3l-7.9-5.6v8.4l7.9-2C204.3,147.9,204.3,147.6,204.4,147.3z"/>
	<path class="st0" d="M206.1,145c1.5-0.7,3.4,0,4.1,1.5c0,0.1,0,0.1,0.1,0.2l2.7-0.7v-11.6h8l-24.5-11.8v17l8.7,6.1
		C205.4,145.4,205.7,145.2,206.1,145z"/>
	<path class="st0" d="M249.7,139.6c-0.2,0.3-0.4,0.5-0.7,0.7l2.1,4.6c0.8-0.3,1.8-0.2,2.6,0.3c1.2,0.8,1.7,2.3,1.2,3.6l6.9,3.3v-5
		c0-4.2-0.6-7.9-1.6-11.2l-10,2.5C250,138.9,249.9,139.3,249.7,139.6z"/>
	<path class="st0" d="M218.3,237.1c-0.3-0.2-0.6-0.5-0.8-0.8l-0.3,0.1c0,0.5-0.2,0.9-0.5,1.4c-0.2,0.2-0.4,0.5-0.6,0.6l0.8,1.7h3.7
		l-0.8-2.4C219.3,237.6,218.8,237.4,218.3,237.1z"/>
	<path class="st0" d="M260.3,205.7l-7.9,18.7c0.4,0.3,0.7,0.7,0.9,1.1l7.1-1.8c0.9-3.2,1.3-7,1.3-11.3v-6.7
		C261.3,205.9,260.8,205.9,260.3,205.7z"/>
	<path class="st0" d="M249.4,146.2C249.4,146.2,249.4,146.2,249.4,146.2c0.1-0.2,0.2-0.2,0.2-0.3l-2.2-4.9c-0.7,0.1-1.4-0.1-2-0.5
		c-0.3-0.2-0.5-0.4-0.7-0.6l-0.6,0.2c0.6,1.2,1,2.6,1.1,4.1L249.4,146.2z"/>
	<path class="st0" d="M248.9,147.9l-3.7-1.8V174l16.5,11.6v-13l-9.9-21.6c-0.5,0-1.1-0.2-1.6-0.5C249.4,149.8,249,148.9,248.9,147.9
		z"/>
	<path class="st0" d="M212.9,153.3l-4-2.8c-0.1,0-0.1,0.1-0.2,0.1c-1.3,0.6-2.7,0.2-3.6-0.8l-8.6,2.2v8.7l9.2,28.1
		c0.6,0,1.3,0.1,1.9,0.5c0.8,0.5,1.3,1.4,1.4,2.3l4,0.9V153.3z"/>
	<path class="st0" d="M212.9,147.9l-2.5,0.6c-0.1,0.3-0.2,0.5-0.3,0.8l2.8,2V147.9z"/>
	<path class="st0" d="M216.9,234.6L216.9,234.6c0.1-0.6,0.2-1.2,0.6-1.8c0.2-0.3,0.4-0.5,0.6-0.7l-2.2-6.6h-3v-9.1l-7.1-21.7
		c-0.6,0-1.2-0.2-1.7-0.5c-0.8-0.5-1.3-1.4-1.4-2.4l-6.3-1.4v4.5l17.3,37.9c0.7-0.1,1.5,0,2.1,0.5
		C216.3,233.8,216.7,234.2,216.9,234.6z"/>
	<path class="st0" d="M219.7,231.5c0.7-0.1,1.4,0.1,2,0.5c0.5,0.3,0.8,0.7,1.1,1.2l24.7-6.2c0-0.6,0.1-1.3,0.5-1.9
		c0.6-1,1.7-1.5,2.8-1.4l8-18.9c-0.2-0.2-0.4-0.5-0.5-0.7l-13-2.8v12.9c0,4-0.9,7-2.8,8.7c-1.8,1.8-4.8,2.7-8.8,2.7h-15.9
		L219.7,231.5z"/>
	<path class="st0" d="M208.4,193.5c-0.2,0.4-0.6,0.7-0.9,0.9l5.4,16.5v-16.7l-4.4-1C208.5,193.3,208.5,193.4,208.4,193.5z"/>
	<path class="st0" d="M253.1,228.5c-0.7,1-1.9,1.5-3,1.4l-3.5,8.3c3.4-1,6.1-2.5,8.2-4.4c2.2-2,3.9-4.7,5-8l-6.3,1.6
		C253.5,227.7,253.3,228.1,253.1,228.5z"/>
	<path class="st0" d="M248.1,228.7l-25,6.2c-0.1,0.5-0.2,0.9-0.5,1.3c-0.3,0.4-0.7,0.7-1.1,1l0.9,2.8h9.7c4.7,0,8.8-0.4,12.3-1.3
		l4.1-9.6C248.3,229,248.2,228.8,248.1,228.7z"/>
	<path class="st0" d="M253.6,150.4l8.1,17.9v-14.2l-7.9-3.8C253.8,150.3,253.7,150.4,253.6,150.4z"/>
	<path class="st0" d="M248.8,135.4c0.5,0.4,0.9,0.9,1.2,1.4l9.6-2.4c-1.4-3.3-3.3-6-5.9-8.1c-3.4-2.7-8-4.6-13.6-5.6l6.5,14.2
		C247.3,134.8,248.1,134.9,248.8,135.4z"/>
	<path class="st0" d="M203.3,190.1c0.2-0.3,0.5-0.6,0.7-0.8l-7.6-23.1v22.6l6.7,1.5C203.2,190.2,203.2,190.2,203.3,190.1z"/>
	<path class="st0" d="M211.6,234.4c0.2-0.2,0.3-0.4,0.5-0.6l-15.7-34.4v40.4l14.6-3.7C211.1,235.5,211.2,234.9,211.6,234.4z"/>
	<path class="st0" d="M212.5,238.6c-0.4-0.2-0.6-0.5-0.9-0.9l-9.1,2.3H215l-0.4-0.9C213.9,239.2,213.1,239,212.5,238.6z"/>
	<path class="st0" d="M333.8,185.1l-9.6-7.6c-0.3,0.2-0.6,0.3-0.9,0.4l-1,7.2H333.8z"/>
	<path class="st0" d="M295.6,226.9c0.1,0.2,0.1,0.5,0.1,0.7l4.3,0.9c0.4-0.5,0.9-0.9,1.6-1.1c0.4-0.1,0.9-0.2,1.3-0.1l0.6-1.3h-5.7
		v-34.4l-14.4,8.9c0.1,0.7,0,1.5-0.5,2.1c-0.1,0.2-0.2,0.3-0.4,0.5l9.9,21.7C293.8,224.6,295.2,225.5,295.6,226.9z"/>
	<path class="st0" d="M289.7,152.6c-0.1-0.2-0.3-0.3-0.4-0.5c-0.4-0.7-0.5-1.5-0.3-2.3l-7.8-6.1v36.8c0.3-0.3,0.6-0.5,1-0.6
		L289.7,152.6z"/>
	<path class="st0" d="M325.5,175.8c0,0.1-0.1,0.3-0.2,0.4l9.9,7.9v-13h-4.4l-5.4,3.3C325.6,174.8,325.6,175.3,325.5,175.8z"/>
	<path class="st0" d="M316.2,235.9c-0.2,0.1-0.4,0.1-0.6,0.1l-0.5,4h24.4v-1.4l-21.4-4.5C317.8,234.9,317.1,235.6,316.2,235.9z"/>
	<path class="st0" d="M289.7,228.8c-0.1-0.2-0.1-0.5-0.1-0.7l-8.3-1.8V240h14.1c0-0.2,0-0.5,0.1-0.7c0.2-0.6,0.5-1.1,1-1.5l-3.2-7
		C291.7,231.1,290.2,230.3,289.7,228.8z"/>
	<path class="st0" d="M316.4,230.1c0.8,0.3,1.5,1,1.8,1.9c0,0.1,0,0.2,0.1,0.3l21.3,4.5v-10.9h-22.6L316.4,230.1z"/>
	<path class="st0" d="M322.3,171.9l0.1-0.9h-3.7l1.9,1.5C321.1,172.2,321.7,171.9,322.3,171.9z"/>
	<path class="st0" d="M300.9,121.5l3.5-1.5H301l-0.4,1.3C300.7,121.4,300.8,121.4,300.9,121.5z"/>
	<path class="st0" d="M299.6,231.2c-0.1-0.4-0.1-0.7-0.1-1.1l-4.1-0.9c-0.1,0.3-0.3,0.5-0.6,0.7l3.2,7.1c0.1,0,0.3,0,0.4,0l2-4.6
		C300.1,232.2,299.8,231.7,299.6,231.2z"/>
	<path class="st0" d="M312.3,233.9c-0.1-0.4-0.2-0.7-0.1-1.1l-6.8-1.4c-0.3,0.8-1,1.5-1.9,1.8c-0.5,0.2-0.9,0.2-1.4,0.1l-1.9,4.3
		c0.8,0.5,1.4,1.4,1.4,2.4h11.8l0.6-4.3C313.1,235.4,312.6,234.7,312.3,233.9z"/>
	<polygon class="st0" points="339.5,134.1 339.5,120 319.2,120 336.7,134.1 	"/>
	<rect x="319.2" y="120" class="st0" width="20.3" height="0"/>
	<path class="st0" d="M305.4,225.9l-0.9,2c0.4,0.4,0.8,0.8,1,1.4c0,0.1,0,0.2,0.1,0.3l7.2,1.5c0.4-0.5,0.9-0.9,1.5-1.1
		c0.1,0,0.2,0,0.3-0.1l0.5-4.1H305.4z"/>
	<path class="st0" d="M327.6,171h-3.4l-0.2,1.3c0.2,0.1,0.5,0.3,0.6,0.5L327.6,171z"/>
	<path class="st0" d="M300.4,126.5c-0.4,0.2-0.9,0.4-1.3,0.4l-5.7,20.9c0.5,0.3,1,0.7,1.3,1.2c0.6,1,0.5,2.1,0,3l3.1,2.4v-20.4h36.1
		L316.4,120h-7.5l-7,3C302.2,124.3,301.7,125.8,300.4,126.5z"/>
	<path class="st0" d="M290.5,147.9c0.2-0.1,0.4-0.2,0.6-0.3l5.9-21.4c-0.2-0.2-0.5-0.4-0.6-0.7l-15,6.6v9.4l8.7,6.8
		C290.1,148.1,290.3,148,290.5,147.9z"/>
	<path class="st0" d="M297.7,188l-12.7-2.7c-0.2,0.1-0.5,0.3-0.7,0.4c-0.4,0.1-0.8,0.2-1.2,0.1l-1.8,6.4v5.8
		c0.2,0.1,0.5,0.2,0.7,0.3c0.2,0.1,0.4,0.3,0.6,0.5l15.2-9.4V188z"/>
	<path class="st0" d="M308.1,185.1h12.5l1-7.2c-0.3-0.1-0.7-0.3-0.9-0.5L308.1,185.1z"/>
	<path class="st0" d="M284.6,179.9c0.7,0.4,1.4,1,1.6,1.8c0.2,0.7,0.2,1.4,0,2l11.5,2.4v-1.1h7l14.8-9.2c-0.2-0.6-0.2-1.2,0-1.8
		c0-0.1,0.1-0.1,0.1-0.2l-3.7-2.9h-18.2v-14.3l-4.3-3.4c-0.5,0.3-1.1,0.4-1.6,0.3L284.6,179.9z"/>
	<path class="st0" d="M295.8,123.7c0-1,0.6-2,1.5-2.6c0.3-0.2,0.7-0.3,1-0.4l0.2-0.8h-17.4v10.2L295.8,123.7z"/>
	<polygon class="st0" points="286.8,217.3 287,217.2 281.3,204.5 281.3,218.6 286.8,217.2 	"/>
	<path class="st0" d="M281.3,224.5l8.7,1.8c0.2-0.4,0.5-0.7,0.8-0.9l-3-6.6l-6.5,1.6V224.5z"/>
</g>
</svg>
